# xmcd
#
# Track frame offsets:
#	150
#	8812
#	18787
#	32512
#	45225
#	55237
#	66387
#	77862
#	87337
#	98587
#
# Disc length: 1508 seconds
#
# Revision: 2
# Processed by: cddbd v1.5.2PL0 Copyright (c) Steve Scherf et al.
# Submitted via: audiograbber 1.83.01
#
DISCID=6b05e20a
DTITLE=Bo Diddley - Bo Knows Bo
DYEAR=1900
DGENRE=Oldies
TTITLE0=Gun Slinger
TTITLE1=Hey! Bo Diddley
TTITLE2=Doing The Crawdaddy
TTITLE3=Road Runner
TTITLE4=Diddling
TTITLE5=Diddley Daddy
TTITLE6=Diddy Wah Diddy
TTITLE7=Crackin' Up
TTITLE8=Who Do You Love
TTITLE9=You Can't Judge A Book By Its Cover
EXTD=
EXTT0=
EXTT1=
EXTT2=
EXTT3=
EXTT4=
EXTT5=
EXTT6=
EXTT7=
EXTT8=
EXTT9=
PLAYORDER=
